<svg width="32" height="32" viewBox="0 0 32 32" fill="none" xmlns="http://www.w3.org/2000/svg">
<path fill-rule="evenodd" clip-rule="evenodd" d="M0.788905 3.95207C0 5.50038 0 7.52724 0 11.581V20.419C0 24.4728 0 26.4996 0.788905 28.0479C1.48285 29.4099 2.59013 30.5172 3.95207 31.2111C5.50038 32 7.52724 32 11.581 32H20.419C24.4728 32 26.4996 32 28.0479 31.2111C29.4099 30.5172 30.5172 29.4099 31.2111 28.0479C32 26.4996 32 24.4728 32 20.419V11.581C32 7.52724 32 5.50038 31.2111 3.95207C30.5172 2.59013 29.4099 1.48285 28.0479 0.788905C26.4996 0 24.4728 0 20.419 0H11.581C7.52724 0 5.50038 0 3.95207 0.788905C2.59013 1.48285 1.48285 2.59013 0.788905 3.95207ZM11.9442 10.4539C11.9442 11.4304 11.0978 12.222 10.0537 12.222C9.00964 12.222 8.16323 11.4304 8.16323 10.4539C8.16323 9.47737 9.00964 8.68576 10.0537 8.68576C11.0978 8.68576 11.9442 9.47737 11.9442 10.4539ZM8.42176 13.5216H11.6534V23.3143H8.42176V13.5216ZM13.6247 13.5216H16.8563V14.778C17.3988 14.0879 18.4402 13.3252 20.1203 13.3252C22.9494 13.3252 23.8093 14.8458 23.8367 18.146V23.3143H20.605C20.605 22.6758 20.6006 22.0338 20.5962 21.392C20.5899 20.4817 20.5836 19.571 20.59 18.6719C20.5983 17.499 20.609 15.9849 18.8276 15.9849C17.2514 15.9849 16.8563 17.1469 16.8563 18.3039V23.3143H13.6247V13.5216Z" fill="#FF0089"/>
</svg>
