<svg width="32" height="33" viewBox="0 0 32 33" fill="none" xmlns="http://www.w3.org/2000/svg">
<path d="M4.9887 4.98361C4.69141 5.0056 4.57879 5.38202 4.81543 5.5627L7.18615 7.37275C7.59672 7.68622 8.10642 7.84266 8.6228 7.8137L25.6857 6.85672C25.8376 6.8482 25.8952 6.65461 25.7725 6.56494L22.5397 4.20297C22.1245 3.89963 21.6144 3.75385 21.101 3.79182L4.9887 4.98361Z" fill="#FF0089"/>
<path fill-rule="evenodd" clip-rule="evenodd" d="M8.84295 9.73778C8.2703 9.76994 7.82248 10.2421 7.82248 10.8138V27.5456C7.82248 28.1657 8.34624 28.6579 8.96734 28.6215L26.8934 27.5696C27.4649 27.5361 27.9112 27.0644 27.9112 26.4938V9.693C27.9112 9.13587 27.4414 8.69325 26.8833 8.7246L8.84295 9.73778ZM10.9313 13.6131V13.8366L12.3843 13.9208V24.8999L11.826 24.9604C11.2748 25.0201 10.8752 25.512 10.9313 26.0618L15.1755 25.867C15.6933 25.8433 16.1213 25.4566 16.1958 24.9453L16.2196 24.782L14.5131 24.4453V16.2109L20.0572 24.8383C20.5999 25.6828 21.6553 26.0427 22.6033 25.7065L23.7381 25.3041V12.9778L24.6422 12.8201C24.9009 12.775 25.0897 12.551 25.0897 12.2893V11.7317L21.3324 11.9302C20.7582 11.9605 20.3083 12.4333 20.3083 13.0064V13.1125L21.7782 13.3146V20.9259L16.0675 12.2537L11.9381 12.538C11.3712 12.577 10.9313 13.0468 10.9313 13.6131Z" fill="#FF0089"/>
<path fill-rule="evenodd" clip-rule="evenodd" d="M1.36175 26.3265L5.0304 31.0396C6.06292 32.366 7.68782 33.0964 9.36889 32.9897L28.2535 31.7909C30.3601 31.6572 32 29.9153 32 27.8115V8.40868C32 7.10708 31.3626 5.88741 30.2925 5.1413L24.3144 0.973174C23.299 0.2652 22.0704 -0.0736314 20.8343 0.0134011L3.81943 1.21138C1.66782 1.36287 0 3.14671 0 5.29649V22.3629C0 23.7981 0.479072 25.1925 1.36175 26.3265ZM3.9717 3.36144L20.9865 2.16346C21.7282 2.11124 22.4654 2.31454 23.0746 2.73932L29.0527 6.90746C29.5444 7.25026 29.8373 7.81065 29.8373 8.40868V27.8115C29.8373 28.7781 29.0838 29.5784 28.1159 29.6399L9.23131 30.8387C8.26559 30.9 7.33214 30.4804 6.73898 29.7184L3.07033 25.0053C2.48188 24.2493 2.1625 23.3197 2.1625 22.3629V5.29649C2.1625 4.27817 2.95252 3.43319 3.9717 3.36144Z" fill="#FF0089"/>
</svg>
