<svg width="32" height="23" viewBox="0 0 32 23" fill="none" xmlns="http://www.w3.org/2000/svg">
<path fill-rule="evenodd" clip-rule="evenodd" d="M4.50796 0.358225C2.24451 0.470362 0.426328 2.24266 0.279436 4.50412C0.138702 6.67077 0 9.33675 0 11.4286C0 13.5204 0.138702 16.1864 0.279435 18.353C0.426328 20.6145 2.24451 22.3868 4.50796 22.4989C7.78558 22.6613 12.4703 22.8571 16 22.8571C19.5297 22.8571 24.2144 22.6613 27.492 22.4989C29.7555 22.3868 31.5737 20.6145 31.7206 18.353C31.8613 16.1864 32 13.5204 32 11.4286C32 9.33675 31.8613 6.67077 31.7206 4.50412C31.5737 2.24267 29.7555 0.470362 27.492 0.358225C24.2144 0.195842 19.5297 0 16 0C12.4703 0 7.78558 0.195843 4.50796 0.358225ZM21.7143 11.4286L12.5714 16V6.85714L21.7143 11.4286Z" fill="#FF0089"/>
</svg>
